# Blender v2.83.1 OBJ File: ''
# www.blender.org
o Arrow5
v -5.987000 0.152200 -0.500000
v -6.058900 0.074800 -0.500000
v -6.058900 0.074800 0.500000
v -5.987000 0.152200 0.500000
v 6.058900 1.227600 -0.500000
v 6.043700 1.356600 -0.500000
v 6.043700 1.356600 0.500000
v 6.058900 1.227600 0.500000
v 5.965600 1.454300 -0.500000
v 5.965600 1.454300 0.500000
v 5.821000 1.493400 -0.500000
v 5.821000 1.493400 0.500000
v -2.152300 1.493400 -0.500000
v -2.152300 1.493400 0.500000
v -2.184200 2.348900 -0.500000
v -2.184200 2.348900 0.500000
v -2.162300 1.503400 -0.500000
v -2.162300 2.335300 -0.500000
v -2.162300 2.335300 0.500000
v -2.162300 1.503400 0.500000
v -6.058900 -0.074800 -0.500000
v -6.058900 -0.074800 0.500000
v -5.987000 -0.152200 -0.500000
v -5.987000 -0.152200 0.500000
v 6.058900 -1.227600 0.500000
v 6.058900 -1.227600 -0.500000
v 6.043700 -1.356600 0.500000
v 6.043700 -1.356600 -0.500000
v 5.965600 -1.454300 0.500000
v 5.965600 -1.454300 -0.500000
v 5.821000 -1.493400 0.500000
v 5.821000 -1.493400 -0.500000
v -2.152300 -1.493400 0.500000
v -2.152300 -1.493400 -0.500000
v -2.184200 -2.348900 -0.500000
v -2.184200 -2.348900 0.500000
v -2.162300 -1.503400 -0.500000
v -2.162300 -1.503400 0.500000
v -2.162300 -2.335300 0.500000
v -2.162300 -2.335300 -0.500000
v 5.845300 1.207200 0.500000
v 5.845300 -1.207200 0.500000
v 5.845300 -1.207200 -0.500000
v 5.845300 1.207200 -0.500000
v 5.831700 1.335400 -0.500000
v 5.831700 -1.335400 -0.500000
v -2.438000 -0.507500 0.500000
v -2.484100 -0.414900 0.500000
v 5.831700 1.335400 0.500000
v -2.484100 0.414900 0.500000
v -2.484100 0.414900 -0.500000
v -2.484100 -0.414900 -0.500000
v -2.438000 0.507500 -0.500000
v -2.438000 -0.507500 -0.500000
v 5.831700 -1.335400 0.500000
v -2.438000 0.507500 0.500000
vt 0.393400 0.909900
vt 0.387100 0.990800
vt 0.387100 0.909900
vt 0.247400 0.731400
vt 0.236900 0.812300
vt 0.236900 0.731400
vt 0.255300 0.731400
vt 0.247400 0.812300
vt 0.267000 0.731400
vt 0.255300 0.812300
vt 0.912300 0.731400
vt 0.267000 0.812300
vt 0.079300 0.990800
vt 0.079300 0.909900
vt 0.077500 0.909900
vt 0.010200 0.990800
vt 0.010200 0.909900
vt 0.077500 0.990800
vt 0.405500 0.990800
vt 0.405500 0.909900
vt 0.411700 0.990800
vt 0.411700 0.909900
vt 0.038200 0.731400
vt 0.038200 0.812300
vt 0.027700 0.731400
vt 0.027700 0.812300
vt 0.019800 0.731400
vt 0.019800 0.812300
vt 0.008100 0.731400
vt 0.724600 0.903300
vt 0.079300 0.822300
vt 0.724600 0.822300
vt 0.719500 0.990800
vt 0.719500 0.909900
vt 0.078500 0.903300
vt 0.011200 0.822300
vt 0.078500 0.822300
vt 0.011200 0.903300
vt 0.009400 0.822300
vt 0.969700 0.298600
vt 0.987000 0.101500
vt 0.987000 0.300200
vt 0.023500 0.430000
vt 0.006200 0.627100
vt 0.006200 0.428300
vt 0.007500 0.637500
vt 0.023500 0.625400
vt 0.024600 0.635800
vt 0.007500 0.417900
vt 0.012000 0.188500
vt 0.295600 0.167300
vt 0.006200 0.194800
vt 0.985800 0.310700
vt 0.913100 0.731400
vt 0.912300 0.812300
vt 0.079300 0.903300
vt 0.295600 0.234400
vt 0.006200 0.206900
vt 0.987000 0.533800
vt 0.697700 0.494100
vt 0.987000 0.521600
vt 0.697700 0.561300
vt 0.981200 0.540000
vt 0.694000 0.568800
vt 0.981200 0.515400
vt 0.694000 0.486600
vt 0.299300 0.159800
vt 0.969700 0.103100
vt 0.012000 0.213200
vt 0.299300 0.241900
vt 0.319800 0.391000
vt 0.673400 0.717800
vt 0.671600 0.716700
vt 0.673400 0.337600
vt 0.319800 0.010700
vt 0.321600 0.011800
vt 0.321600 0.079200
vt 0.671600 0.406000
vt 0.670800 0.406800
vt 0.671600 0.649400
vt 0.321600 0.322500
vt 0.322400 0.321700
vt 0.024600 0.419600
vt 0.968600 0.308900
vt 0.985800 0.091000
vt 0.968600 0.092800
vt 0.013800 0.645400
vt 0.979500 0.318600
vt 0.967800 0.321700
vt 0.013800 0.410000
vt 0.025500 0.406800
vt 0.979500 0.083100
vt 0.670800 0.648600
vt 0.025500 0.648600
vt 0.322400 0.080000
vt 0.967800 0.080000
vt 0.393400 0.990800
vt 0.008100 0.812300
vt 0.009400 0.903300
vt 0.913100 0.812300
vt 0.321600 0.389900
vt 0.671600 0.338700
vn -0.9308 0.3656 -0.0000
vn -0.6234 0.7819 -0.0000
vn 0.9226 0.3859 -0.0000
vn 0.9983 0.0586 -0.0000
vn 0.5480 0.8365 -0.0000
vn 0.1317 0.9913 -0.0000
vn 0.3827 0.9239 -0.0000
vn 0.0169 0.9999 0.0000
vn 0.0168 0.9999 0.0000
vn 1.0000 0.0000 0.0000
vn 0.5290 0.8486 -0.0000
vn -0.9308 -0.3656 0.0000
vn -0.6234 -0.7819 0.0000
vn 0.9983 -0.0586 0.0000
vn 0.9226 -0.3859 0.0000
vn 0.5480 -0.8365 -0.0000
vn 0.1317 -0.9913 0.0000
vn 0.3827 -0.9239 0.0000
vn 0.0169 -0.9999 0.0000
vn 0.0168 -0.9999 0.0000
vn 0.5290 -0.8486 -0.0000
vn -0.0000 0.0000 1.0000
vn -0.0000 -0.0000 -1.0000
vn 0.7071 0.7071 -0.0000
vn 0.7071 -0.7071 0.0000
s 1
f 2/1/1 4/2/2 1/3/2
f 6/4/3 8/5/4 5/6/4
f 9/7/5 7/8/3 6/4/3
f 11/9/6 10/10/5 9/7/5
f 13/11/7 12/12/6 11/9/6
f 1/3/2 16/13/8 15/14/9
f 18/15/10 20/16/10 17/17/10
f 15/14/9 19/18/11 18/15/11
f 22/19/12 2/1/1 21/20/12
f 24/21/13 21/20/12 23/22/13
f 8/5/4 26/23/14 5/6/4
f 25/24/14 28/25/15 26/23/14
f 27/26/15 30/27/16 28/25/15
f 29/28/16 32/29/17 30/27/16
f 31/30/17 34/31/18 32/32/17
f 36/33/19 23/22/13 35/34/20
f 38/35/10 40/36/10 37/37/10
f 39/38/21 35/39/20 40/36/21
f 41/40/22 25/41/22 8/42/22
f 43/43/23 5/44/23 26/45/23
f 6/46/23 44/47/23 45/48/23
f 28/49/23 43/43/23 26/45/23
f 24/50/22 48/51/22 22/52/22
f 7/53/22 41/40/22 8/42/22
f 17/54/24 14/55/7 13/11/7
f 38/35/25 34/31/18 33/56/18
f 22/52/22 50/57/22 3/58/22
f 2/59/23 52/60/23 21/61/23
f 51/62/23 1/63/23 53/64/23
f 23/65/23 52/60/23 54/66/23
f 47/67/22 42/68/22 48/51/22
f 4/69/22 50/57/22 56/70/22
f 56/70/22 16/71/22 4/69/22
f 53/64/23 15/72/23 18/73/23
f 54/66/23 35/74/23 23/65/23
f 47/67/22 36/75/22 39/76/22
f 38/77/22 47/67/22 39/76/22
f 37/78/23 54/66/23 34/79/23
f 17/80/23 53/64/23 18/73/23
f 20/81/22 56/70/22 14/82/22
f 48/51/22 41/40/22 50/57/22
f 51/62/23 43/43/23 52/60/23
f 44/47/23 53/64/23 45/48/23
f 54/66/23 43/43/23 46/83/23
f 56/70/22 41/40/22 49/84/22
f 27/85/22 42/68/22 55/86/22
f 45/48/23 9/87/23 6/46/23
f 49/84/22 10/88/22 12/89/22
f 46/83/23 30/90/23 32/91/23
f 55/86/22 29/92/22 27/85/22
f 45/48/23 13/93/23 11/94/23
f 46/83/23 34/79/23 54/66/23
f 55/86/22 33/95/22 31/96/22
f 49/84/22 14/82/22 56/70/22
f 2/1/1 3/97/1 4/2/2
f 6/4/3 7/8/3 8/5/4
f 9/7/5 10/10/5 7/8/3
f 11/9/6 12/12/6 10/10/5
f 13/11/7 14/55/7 12/12/6
f 1/3/2 4/2/2 16/13/8
f 18/15/10 19/18/10 20/16/10
f 15/14/9 16/13/8 19/18/11
f 22/19/12 3/97/1 2/1/1
f 24/21/13 22/19/12 21/20/12
f 8/5/4 25/24/14 26/23/14
f 25/24/14 27/26/15 28/25/15
f 27/26/15 29/28/16 30/27/16
f 29/28/16 31/98/17 32/29/17
f 31/30/17 33/56/18 34/31/18
f 36/33/19 24/21/13 23/22/13
f 38/35/10 39/38/10 40/36/10
f 39/38/21 36/99/19 35/39/20
f 41/40/22 42/68/22 25/41/22
f 43/43/23 44/47/23 5/44/23
f 6/46/23 5/44/23 44/47/23
f 28/49/23 46/83/23 43/43/23
f 24/50/22 47/67/22 48/51/22
f 7/53/22 49/84/22 41/40/22
f 17/54/24 20/100/24 14/55/7
f 38/35/25 37/37/25 34/31/18
f 22/52/22 48/51/22 50/57/22
f 2/59/23 51/62/23 52/60/23
f 51/62/23 2/59/23 1/63/23
f 23/65/23 21/61/23 52/60/23
f 47/67/22 55/86/22 42/68/22
f 4/69/22 3/58/22 50/57/22
f 56/70/22 19/101/22 16/71/22
f 53/64/23 1/63/23 15/72/23
f 54/66/23 40/102/23 35/74/23
f 47/67/22 24/50/22 36/75/22
f 38/77/22 33/95/22 47/67/22
f 37/78/23 40/102/23 54/66/23
f 17/80/23 13/93/23 53/64/23
f 20/81/22 19/101/22 56/70/22
f 48/51/22 42/68/22 41/40/22
f 51/62/23 44/47/23 43/43/23
f 44/47/23 51/62/23 53/64/23
f 54/66/23 52/60/23 43/43/23
f 56/70/22 50/57/22 41/40/22
f 27/85/22 25/41/22 42/68/22
f 45/48/23 11/94/23 9/87/23
f 49/84/22 7/53/22 10/88/22
f 46/83/23 28/49/23 30/90/23
f 55/86/22 31/96/22 29/92/22
f 45/48/23 53/64/23 13/93/23
f 46/83/23 32/91/23 34/79/23
f 55/86/22 47/67/22 33/95/22
f 49/84/22 12/89/22 14/82/22
